<svg xmlns="http://www.w3.org/2000/svg" xmlns:xlink="http://www.w3.org/1999/xlink"><defs><symbol viewBox="0 0 64 64" id="003-book"><path d="M19 35h8v22h23v4h6v-4h5V3H3v4h32v24H3v4zm20-7a3 3 0 0 1 3-3 3 3 0 0 1 0-6 3 3 0 0 1 0-6h15v18H42a3 3 0 0 1-3-3zM13 57H7v4h6z" fill="#9bc9ff" /><g fill="#57a4ff"><path d="M61 2H3a1 1 0 0 0-1 1v54a1 1 0 0 0 1 1h3v3a1 1 0 0 0 1 1h6a1 1 0 0 0 1-1v-3h35v3a1 1 0 0 0 1 1h6a1 1 0 0 0 1-1v-3h4a1 1 0 0 0 1-1V3a1 1 0 0 0-1-1zm-1 2v26h-2V13a1 1 0 0 0-1-1H42a3.983 3.983 0 0 0-2.618 7 3.947 3.947 0 0 0 0 6 3.92 3.92 0 0 0-.826 5H36V7a1 1 0 0 0-1-1H4V4zM40 28a2 2 0 0 1 2-2h14v4H42a2 2 0 0 1-2-2zm0-6a2 2 0 0 1 2-2h14v4H42a2 2 0 0 1-2-2zm0-6a2 2 0 0 1 2-2h14v4H42a2 2 0 0 1-2-2zM20 30V15h6v15zm-8 0V15h6v15zm-8 0V15h6v15zm8 6h6v2h-6zm8 0h6v2h-6zm-8 20V43h6v13zm0-15v-1h6v1zm-8-1h6v1H4zm16 0h6v1h-6zm-10-2H4v-2h6zm2-30h6v2h-6zm8 0h6v2h-6zm8 0h6v2h-6zm6 5h-6v-1h6zM4 12h6v1H4zm8 0h6v1h-6zm8 0h6v1h-6zm-10-2H4V8h6zm18 5h6v15h-6zM4 43h6v13H4zm8 17H8v-2h4zm8-4V43h6v13zm35 4h-4v-2h4zm-27-4V35a1 1 0 0 0-1-1H4v-2h56v24z" /><path d="M42 15h12v2H42zM42 21h12v2H42zM42 27h12v2H42z" /></g></symbol><symbol viewBox="0 0 512.001 512.001" id="jupiter-planet"><circle cx="280.969" cy="231.032" r="221.031" fill="#c6ecf6" /><circle cx="117.446" cy="394.555" r="98.374" fill="#fe7a77" /><path d="M20.567 49.507h9.684v10.001c0 5.523 4.478 10.001 10.001 10.001s10.001-4.479 10.001-10.001V49.507h9.683c5.524 0 10.001-4.479 10.001-10.001s-4.478-10.001-10.001-10.001h-9.683V19.503c0-5.523-4.478-10.001-10.001-10.001S30.251 13.98 30.251 19.503v10.001h-9.684c-5.524 0-10.001 4.479-10.001 10.001s4.477 10.002 10.001 10.002zM492.68 458.897h-9.683v-10.001c0-5.523-4.478-10.001-10.001-10.001s-10.001 4.479-10.001 10.001v10.001h-9.683c-5.524 0-10.001 4.479-10.001 10.001s4.478 10.001 10.001 10.001h9.683V488.9c0 5.523 4.478 10.001 10.001 10.001s10.001-4.479 10.001-10.001v-10.001h9.683c5.524 0 10.001-4.479 10.001-10.001s-4.478-10.001-10.001-10.001zM281.281 442.061h-.313c-5.524 0-10.001 4.479-10.001 10.001s4.478 10.001 10.001 10.001h.313c5.524 0 10.001-4.479 10.001-10.001s-4.477-10.001-10.001-10.001z" /><path d="M512 231.032c0-61.711-24.031-119.728-67.667-163.365C400.696 24.031 342.679 0 280.968 0S161.24 24.031 117.604 67.667c-43.636 43.637-67.667 101.654-67.667 163.365 0 5.523 4.478 10.001 10.001 10.001s10.001-4.479 10.001-10.001c0-19.705 2.722-38.783 7.798-56.89h41.549c5.524 0 10.001-4.479 10.001-10.001 0-5.523-4.478-10.001-10.001-10.001H84.444c30.801-78.45 107.28-134.137 196.524-134.137 42.281 0 81.69 12.508 114.742 34.005h-29.151c-21.365 0-41.95 6.419-59.529 18.562-14.223 9.824-30.876 15.017-48.161 15.017h-16.925c-5.524 0-10.001 4.479-10.001 10.001 0 5.523 4.478 10.001 10.001 10.001h16.925c21.364 0 41.949-6.418 59.529-18.562 14.221-9.824 30.875-15.017 48.16-15.017h55.236c38.83 34.861 64.698 83.875 69.411 138.841H351.681c-21.264 0-32.204-7.807-43.787-16.07-7.707-5.499-15.675-11.186-26.303-14.285-38.419-11.212-60.455 8.621-78.161 24.554-10.278 9.251-19.156 17.239-28.931 17.239h-55.215c-5.524 0-10.001 4.479-10.001 10.001 0 5.523 4.478 10.001 10.001 10.001h55.215c17.45 0 30.089-11.374 42.312-22.373 16.175-14.558 31.452-28.31 59.178-20.222 7.371 2.15 13.356 6.421 20.286 11.366 12.357 8.817 27.737 19.791 55.405 19.791h140.295c-.276 32.796-7.993 63.965-21.679 91.754h-81.602c-24 0-47.124 7.21-66.87 20.851-16.389 11.321-35.581 17.305-55.501 17.305h-45.262c-13.618-44.295-54.915-76.586-103.615-76.586a107.885 107.885 0 0 0-35.425 5.952 9.931 9.931 0 0 0-4.147-3.65c-30.778-14.502-55.055-15.159-68.359-1.855-13.105 13.106-12.658 36.928 1.258 67.078a191.989 191.989 0 0 0 3.607 7.34 107.965 107.965 0 0 0-5.31 33.513c0 59.759 48.618 108.376 108.376 108.376 11.692 0 22.954-1.868 33.513-5.31a195.002 195.002 0 0 0 7.34 3.607C173.851 508.406 187.717 512 199.3 512c10.873-.001 19.733-3.168 26.078-9.514 13.633-13.633 12.616-38.658-2.864-70.467a9.949 9.949 0 0 0-2.295-3.045 107.927 107.927 0 0 0 5.605-34.419c0-3.984-.223-7.915-.643-11.788h41.145c24 0 47.124-7.21 66.87-20.851 16.389-11.321 35.581-17.305 55.501-17.305h70.36c-31.015 48.737-81.683 84.071-142.273 94.425-5.445.931-9.104 6.099-8.173 11.544.833 4.875 5.063 8.318 9.846 8.318.559 0 1.126-.048 1.696-.145 53.089-9.072 101.663-36.774 136.775-78C492.441 339.055 512 285.883 512 231.032zM205.819 394.555c0 36.304-22.007 67.561-53.38 81.143-21.18-12.08-43.806-29.784-65.079-51.058-23.211-23.21-40.041-45.635-51.091-65.003 13.564-31.412 44.842-53.455 81.176-53.455 48.729-.001 88.374 39.643 88.374 88.373zM23.658 300.769c5.623-5.627 19.197-4.827 36.471 1.847A109.216 109.216 0 0 0 25.468 337.3c-6.922-17.907-7.274-31.067-1.81-36.531zm93.787 182.159c-48.73 0-88.373-39.645-88.373-88.373 0-2.78.135-5.529.388-8.244 11.874 17.563 26.762 35.479 43.756 52.473s34.91 31.882 52.473 43.756a88.83 88.83 0 0 1-8.244.388zm93.787 5.413c-5.602 5.605-19.215 4.813-36.471-1.847a109.214 109.214 0 0 0 34.625-34.625c6.696 17.298 7.506 30.812 1.846 36.472z" /><path d="M202.446 104.655a10.074 10.074 0 0 0 2.93-7.071c0-2.63-1.07-5.211-2.93-7.07a10.079 10.079 0 0 0-7.071-2.931c-2.63 0-5.211 1.07-7.071 2.931a10.074 10.074 0 0 0-2.93 7.07c0 2.631 1.07 5.212 2.93 7.071a10.035 10.035 0 0 0 7.071 2.93c2.631 0 5.212-1.06 7.071-2.93zM424.654 160.022c5.524 0 10.001-4.479 10.001-10.001s-4.478-10.001-10.001-10.001h-89.179c-5.524 0-10.001 4.479-10.001 10.001s4.478 10.001 10.001 10.001h89.179zM160.856 164.141c0 5.523 4.478 10.001 10.001 10.001h30.1c5.524 0 10.001-4.479 10.001-10.001 0-5.523-4.478-10.001-10.001-10.001h-30.1c-5.524-.001-10.001 4.478-10.001 10.001zM294.311 317.044c14.545 0 28.21-6.423 37.491-17.621a28.608 28.608 0 0 1 22.091-10.382h94.097c5.524 0 10.001-4.479 10.001-10.001 0-5.523-4.478-10.001-10.001-10.001h-94.097c-14.545 0-28.21 6.423-37.491 17.621a28.608 28.608 0 0 1-22.091 10.382h-38.347c-5.524 0-10.001 4.479-10.001 10.001s4.478 10.001 10.001 10.001h38.347z" /></symbol></defs></svg>