<svg height="512" viewBox="0 0 64 64" width="512" xmlns="http://www.w3.org/2000/svg"><g id="Archive-2" data-name="Archive"><path d="m39 9v10h-10v42h32v-52zm4 4h14v6h-14z" fill="#9bc9ff"/><g fill="#57a4ff"><path d="m36 6h-30a1 1 0 0 0 -1 1v8a1 1 0 0 0 1 1h20v-2h-19v-6h29z"/><path d="m19 10h6v2h-6z"/><path d="m5 19v8a1 1 0 0 0 1 1h20v-2h-19v-6h19v-2h-20a1 1 0 0 0 -1 1z"/><path d="m19 22h6v2h-6z"/><path d="m5 31v8a1 1 0 0 0 1 1h20v-2h-19v-6h19v-2h-20a1 1 0 0 0 -1 1z"/><path d="m19 34h6v2h-6z"/><path d="m5 43v8a1 1 0 0 0 1 1h20v-2h-19v-6h19v-2h-20a1 1 0 0 0 -1 1z"/><path d="m19 46h6v2h-6z"/><path d="m61 8h-18v-5a1 1 0 0 0 -1-1h-40a1 1 0 0 0 -1 1v52a1 1 0 0 0 1 1h26v5a1 1 0 0 0 1 1h32a1 1 0 0 0 1-1v-52a1 1 0 0 0 -1-1zm-33 46h-25v-50h38v4h-2v.009a.987.987 0 0 0 -.707.284l-10 10a1 1 0 0 0 -.284.707h-.009zm10-42.586v6.586h-6.586zm22 48.586h-30v-40h9a1 1 0 0 0 1-1v-9h20z"/><path d="m34 24h22v2h-22z"/><path d="m34 30h22v2h-22z"/><path d="m34 36h22v2h-22z"/><path d="m34 42h22v2h-22z"/><path d="m34 48h22v2h-22z"/><path d="m34 54h22v2h-22z"/><path d="m43 20h14a1 1 0 0 0 1-1v-6a1 1 0 0 0 -1-1h-14a1 1 0 0 0 -1 1v6a1 1 0 0 0 1 1zm1-6h12v4h-12z"/></g></g></svg>