<svg height="512" viewBox="0 0 64 64" width="512" xmlns="http://www.w3.org/2000/svg"><path d="m3 32v29h5v-24h48v24h5v-58h-58zm5-4v-20h48v24h-48z" fill="#9bc9ff"/><g fill="#57a4ff"><path d="m61 2h-58a1 1 0 0 0 -1 1v58a1 1 0 0 0 1 1h58a1 1 0 0 0 1-1v-58a1 1 0 0 0 -1-1zm-1 2v27h-3v-23a1 1 0 0 0 -1-1h-48a1 1 0 0 0 -1 1v23h-3v-27zm-5 23h-10v-2h10zm-22-2h10v2h-10zm-2 2h-10v-2h10zm24-4h-10v-14h10zm-12 0h-10v-14h10zm-12 0h-10v-14h10zm-12 0h-10v-14h10zm-10 2h10v2h-10zm0 4h10v2h-10zm12 0h10v2h-10zm12 0h10v2h-10zm12 0h10v2h-10zm-14 29v2h-10v-2zm-10-2v-2h10v2zm12 2h10v2h-10zm0-2v-2h10v2zm12-2h10v2h-10zm10-2h-10v-14h10zm-12 0h-10v-14h10zm-12 0h-10v-14h10zm-12 0h-10v-14h10zm-10 2h10v2h-10zm0 4h10v2h-10zm36 2v-2h10v2zm12 0v-23a1 1 0 0 0 -1-1h-48a1 1 0 0 0 -1 1v23h-3v-27h56v27z"/><path d="m14 46a3 3 0 1 0 -3-3 3 3 0 0 0 3 3zm0-4a1 1 0 1 1 -1 1 1 1 0 0 1 1-1z"/><path d="m12 48h4v2h-4z"/><path d="m26 46a3 3 0 1 0 -3-3 3 3 0 0 0 3 3zm0-4a1 1 0 1 1 -1 1 1 1 0 0 1 1-1z"/><path d="m24 48h4v2h-4z"/><path d="m38 46a3 3 0 1 0 -3-3 3 3 0 0 0 3 3zm0-4a1 1 0 1 1 -1 1 1 1 0 0 1 1-1z"/><path d="m36 48h4v2h-4z"/><path d="m48 48h4v2h-4z"/><path d="m50 46a3 3 0 1 0 -3-3 3 3 0 0 0 3 3zm0-4a1 1 0 1 1 -1 1 1 1 0 0 1 1-1z"/><path d="m14 17a3 3 0 1 0 -3-3 3 3 0 0 0 3 3zm0-4a1 1 0 1 1 -1 1 1 1 0 0 1 1-1z"/><path d="m12 19h4v2h-4z"/><path d="m26 17a3 3 0 1 0 -3-3 3 3 0 0 0 3 3zm0-4a1 1 0 1 1 -1 1 1 1 0 0 1 1-1z"/><path d="m24 19h4v2h-4z"/><path d="m38 17a3 3 0 1 0 -3-3 3 3 0 0 0 3 3zm0-4a1 1 0 1 1 -1 1 1 1 0 0 1 1-1z"/><path d="m36 19h4v2h-4z"/><path d="m48 19h4v2h-4z"/><path d="m50 17a3 3 0 1 0 -3-3 3 3 0 0 0 3 3zm0-4a1 1 0 1 1 -1 1 1 1 0 0 1 1-1z"/></g></svg>