<svg height="512" viewBox="0 0 64 64" width="512" xmlns="http://www.w3.org/2000/svg"><path d="m19 35h8v22h23v4h6v-4h5v-54h-58v4h32v24h-32v4zm20-7a3 3 0 0 1 3-3 3 3 0 0 1 0-6 3 3 0 0 1 0-6h15v18h-15a3 3 0 0 1 -3-3z" fill="#9bc9ff"/><path d="m13 57h-2-4v4h6z" fill="#9bc9ff"/><g fill="#57a4ff"><path d="m61 2h-58a1 1 0 0 0 -1 1v54a1 1 0 0 0 1 1h3v3a1 1 0 0 0 1 1h6a1 1 0 0 0 1-1v-3h35v3a1 1 0 0 0 1 1h6a1 1 0 0 0 1-1v-3h4a1 1 0 0 0 1-1v-54a1 1 0 0 0 -1-1zm-1 2v26h-2v-17a1 1 0 0 0 -1-1h-15a3.983 3.983 0 0 0 -2.618 7 3.947 3.947 0 0 0 0 6 3.92 3.92 0 0 0 -.826 5h-2.556v-23a1 1 0 0 0 -1-1h-31v-2zm-20 24a2 2 0 0 1 2-2h14v4h-14a2 2 0 0 1 -2-2zm0-6a2 2 0 0 1 2-2h14v4h-14a2 2 0 0 1 -2-2zm0-6a2 2 0 0 1 2-2h14v4h-14a2 2 0 0 1 -2-2zm-20 14v-15h6v15zm-8 0v-15h6v15zm-8 0v-15h6v15zm8 6h6v2h-6zm8 0h6v2h-6zm-8 20v-13h6v13zm0-15v-1h6v1zm-8-1h6v1h-6zm16 0h6v1h-6zm-10-2h-6v-2h6zm2-30h6v2h-6zm8 0h6v2h-6zm8 0h6v2h-6zm6 5h-6v-1h6zm-30-1h6v1h-6zm8 0h6v1h-6zm8 0h6v1h-6zm-10-2h-6v-2h6zm18 5h6v15h-6zm-24 28h6v13h-6zm8 17h-4v-2h4zm8-4v-13h6v13zm35 4h-4v-2h4zm-27-4v-21a1 1 0 0 0 -1-1h-23v-2h56v24z"/><path d="m42 15h12v2h-12z"/><path d="m42 21h12v2h-12z"/><path d="m42 27h12v2h-12z"/></g></svg>