<svg height="512" viewBox="0 0 64 64" width="512" xmlns="http://www.w3.org/2000/svg"><path d="m41 25h16v4h-16z" fill="#9bc9ff"/><path d="m29 29h8v-8h16v-10h-48v44h24z" fill="#9bc9ff"/><circle cx="35" cy="37" fill="#9bc9ff" r="2"/><circle cx="35" cy="45" fill="#9bc9ff" r="2"/><circle cx="35" cy="53" fill="#9bc9ff" r="2"/><g fill="#57a4ff"><path d="m61 20h-7v-8h1a1 1 0 0 0 1-1v-8a1 1 0 0 0 -1-1h-52a1 1 0 0 0 -1 1v8a1 1 0 0 0 1 1h1v43a1 1 0 0 0 1 1h23v5a1 1 0 0 0 1 1h32a1 1 0 0 0 1-1v-40a1 1 0 0 0 -1-1zm-57-16h50v6h-50zm2 50v-42h46v8h-15v.009a.987.987 0 0 0 -.707.284l-8 8a.991.991 0 0 0 -.284.707h-.009v25zm30-30.586v4.586h-4.586zm24 36.586h-30v-30h7a1 1 0 0 0 1-1v-7h22z"/><path d="m35 34a3 3 0 1 0 3 3 3 3 0 0 0 -3-3zm0 4a1 1 0 1 1 1-1 1 1 0 0 1 -1 1z"/><path d="m40 36h18v2h-18z"/><path d="m35 42a3 3 0 1 0 3 3 3 3 0 0 0 -3-3zm0 4a1 1 0 1 1 1-1 1 1 0 0 1 -1 1z"/><path d="m40 44h18v2h-18z"/><path d="m35 50a3 3 0 1 0 3 3 3 3 0 0 0 -3-3zm0 4a1 1 0 1 1 1-1 1 1 0 0 1 -1 1z"/><path d="m40 52h18v2h-18z"/><path d="m41 30h16a1 1 0 0 0 1-1v-4a1 1 0 0 0 -1-1h-16a1 1 0 0 0 -1 1v4a1 1 0 0 0 1 1zm1-4h14v2h-14z"/><path d="m50 5h2v2h-2z"/><path d="m42 5h6v2h-6z"/><path d="m8 43h2v2h-2z"/><path d="m10 47h-2v4a1 1 0 0 0 1 1h4v-2h-3z"/></g></svg>