<svg height="512" viewBox="0 0 64 64" width="512" xmlns="http://www.w3.org/2000/svg"><path d="m59 15h-32a2.006 2.006 0 0 0 -2 2v42a2.006 2.006 0 0 0 2 2h32a2.006 2.006 0 0 0 2-2v-42a2.006 2.006 0 0 0 -2-2zm-26 42h-4v-4h4zm0-8h-4v-4h4zm0-8h-4v-4h4zm0-8h-4v-4h4zm8 24h-4v-4h4zm0-8h-4v-4h4zm0-8h-4v-4h4zm0-8h-4v-4h4zm16 24h-12v-4h12zm-8-20v4h-4v-4zm-4-4v-4h4v4zm4 12v4h-4v-4zm8 4h-4v-4h4zm0-8h-4v-4h4zm0-8h-4v-4h4zm0-8h-28v-6h28z" fill="#9bc9ff"/><circle cx="37" cy="9" fill="#9bc9ff" r="2"/><circle cx="29" cy="9" fill="#9bc9ff" r="2"/><circle cx="21" cy="9" fill="#9bc9ff" r="2"/><path d="m7 43h8v8h-8z" fill="#9bc9ff"/><path d="m7 31h8v8h-8z" fill="#9bc9ff"/><path d="m7 19h8v8h-8z" fill="#9bc9ff"/><path d="m15 3-12 12h12z" fill="#9bc9ff"/><g fill="#57a4ff"><path d="m59 14h-15v-9a3 3 0 0 0 -3-3h-26a1 1 0 0 0 -.707.293l-12 12a1 1 0 0 0 -.293.707v38a3 3 0 0 0 3 3h19v3a3 3 0 0 0 3 3h32a3 3 0 0 0 3-3v-42a3 3 0 0 0 -3-3zm-45-8.586v8.586h-8.586zm-9 48.586a1 1 0 0 1 -1-1v-37h11a1 1 0 0 0 1-1v-11h25a1 1 0 0 1 1 1v9h-15a3 3 0 0 0 -3 3v37zm55 5a1 1 0 0 1 -1 1h-32a1 1 0 0 1 -1-1v-42a1 1 0 0 1 1-1h32a1 1 0 0 1 1 1z"/><path d="m57 18h-28a1 1 0 0 0 -1 1v6a1 1 0 0 0 1 1h28a1 1 0 0 0 1-1v-6a1 1 0 0 0 -1-1zm-1 6h-26v-4h26z"/><path d="m33 28h-4a1 1 0 0 0 -1 1v4a1 1 0 0 0 1 1h4a1 1 0 0 0 1-1v-4a1 1 0 0 0 -1-1zm-1 4h-2v-2h2z"/><path d="m41 28h-4a1 1 0 0 0 -1 1v4a1 1 0 0 0 1 1h4a1 1 0 0 0 1-1v-4a1 1 0 0 0 -1-1zm-1 4h-2v-2h2z"/><path d="m45 34h4a1 1 0 0 0 1-1v-4a1 1 0 0 0 -1-1h-4a1 1 0 0 0 -1 1v4a1 1 0 0 0 1 1zm1-4h2v2h-2z"/><path d="m57 28h-4a1 1 0 0 0 -1 1v4a1 1 0 0 0 1 1h4a1 1 0 0 0 1-1v-4a1 1 0 0 0 -1-1zm-1 4h-2v-2h2z"/><path d="m33 36h-4a1 1 0 0 0 -1 1v4a1 1 0 0 0 1 1h4a1 1 0 0 0 1-1v-4a1 1 0 0 0 -1-1zm-1 4h-2v-2h2z"/><path d="m41 36h-4a1 1 0 0 0 -1 1v4a1 1 0 0 0 1 1h4a1 1 0 0 0 1-1v-4a1 1 0 0 0 -1-1zm-1 4h-2v-2h2z"/><path d="m44 41a1 1 0 0 0 1 1h4a1 1 0 0 0 1-1v-4a1 1 0 0 0 -1-1h-4a1 1 0 0 0 -1 1zm2-3h2v2h-2z"/><path d="m57 36h-4a1 1 0 0 0 -1 1v4a1 1 0 0 0 1 1h4a1 1 0 0 0 1-1v-4a1 1 0 0 0 -1-1zm-1 4h-2v-2h2z"/><path d="m33 44h-4a1 1 0 0 0 -1 1v4a1 1 0 0 0 1 1h4a1 1 0 0 0 1-1v-4a1 1 0 0 0 -1-1zm-1 4h-2v-2h2z"/><path d="m41 44h-4a1 1 0 0 0 -1 1v4a1 1 0 0 0 1 1h4a1 1 0 0 0 1-1v-4a1 1 0 0 0 -1-1zm-1 4h-2v-2h2z"/><path d="m44 49a1 1 0 0 0 1 1h4a1 1 0 0 0 1-1v-4a1 1 0 0 0 -1-1h-4a1 1 0 0 0 -1 1zm2-3h2v2h-2z"/><path d="m57 44h-4a1 1 0 0 0 -1 1v4a1 1 0 0 0 1 1h4a1 1 0 0 0 1-1v-4a1 1 0 0 0 -1-1zm-1 4h-2v-2h2z"/><path d="m33 52h-4a1 1 0 0 0 -1 1v4a1 1 0 0 0 1 1h4a1 1 0 0 0 1-1v-4a1 1 0 0 0 -1-1zm-1 4h-2v-2h2z"/><path d="m41 52h-4a1 1 0 0 0 -1 1v4a1 1 0 0 0 1 1h4a1 1 0 0 0 1-1v-4a1 1 0 0 0 -1-1zm-1 4h-2v-2h2z"/><path d="m57 52h-12a1 1 0 0 0 -1 1v4a1 1 0 0 0 1 1h12a1 1 0 0 0 1-1v-4a1 1 0 0 0 -1-1zm-1 4h-10v-2h10z"/><path d="m52 21h2v2h-2z"/><path d="m15 18h-8a1 1 0 0 0 -1 1v8a1 1 0 0 0 1 1h8a1 1 0 0 0 1-1v-8a1 1 0 0 0 -1-1zm-1 8h-6v-6h6z"/><path d="m15 30h-8a1 1 0 0 0 -1 1v8a1 1 0 0 0 1 1h8a1 1 0 0 0 1-1v-8a1 1 0 0 0 -1-1zm-1 8h-6v-6h6z"/><path d="m15 42h-8a1 1 0 0 0 -1 1v8a1 1 0 0 0 1 1h8a1 1 0 0 0 1-1v-8a1 1 0 0 0 -1-1zm-1 8h-6v-6h6z"/><path d="m18 18h4v2h-4z"/><path d="m18 22h4v2h-4z"/><path d="m18 26h4v2h-4z"/><path d="m18 30h4v2h-4z"/><path d="m18 34h4v2h-4z"/><path d="m18 38h4v2h-4z"/><path d="m18 42h4v2h-4z"/><path d="m18 46h4v2h-4z"/><path d="m18 50h4v2h-4z"/><path d="m21 6a3 3 0 1 0 3 3 3 3 0 0 0 -3-3zm0 4a1 1 0 1 1 1-1 1 1 0 0 1 -1 1z"/><path d="m29 12a3 3 0 1 0 -3-3 3 3 0 0 0 3 3zm0-4a1 1 0 1 1 -1 1 1 1 0 0 1 1-1z"/><path d="m37 12a3 3 0 1 0 -3-3 3 3 0 0 0 3 3zm0-4a1 1 0 1 1 -1 1 1 1 0 0 1 1-1z"/></g></svg>