<svg height="512" viewBox="0 0 64 64" width="512" xmlns="http://www.w3.org/2000/svg"><path d="m59 7h-6v3.54a4 4 0 1 1 -4 0v-3.54h-34v3.54a4 4 0 1 1 -4 0v-3.54h-6a2.006 2.006 0 0 0 -2 2v12h58v-12a2.006 2.006 0 0 0 -2-2zm-16 10h-22v-6h22z" fill="#9bc9ff"/><path d="m43 49v8h7 7v-8-8h-7v8z" fill="#9bc9ff"/><path d="m21 41v8h-7v8h7 7 8v-8h7v-8h7v-8h7v-8h-7-7-7v8h-8v8z" fill="#9bc9ff"/><path d="m21 25h-7-7v8 8 8h7v-8h7v-8h7v-8z" fill="#9bc9ff"/><g fill="#57a4ff"><path d="m59 6h-5v-1a3 3 0 0 0 -6 0v1h-32v-1a3 3 0 0 0 -6 0v1h-5a3 3 0 0 0 -3 3v50a3 3 0 0 0 3 3h54a3 3 0 0 0 3-3v-50a3 3 0 0 0 -3-3zm-5 8a3 3 0 1 1 -5.588-1.51 2.973 2.973 0 0 0 5.176 0 2.991 2.991 0 0 1 .412 1.51zm-4-9a1 1 0 0 1 2 0v6a1 1 0 0 1 -2 0zm-34 9a3 3 0 1 1 -5.588-1.51 2.973 2.973 0 0 0 5.176 0 2.991 2.991 0 0 1 .412 1.51zm-4-9a1 1 0 0 1 2 0v6a1 1 0 0 1 -2 0zm-7 3h5v2.008a5 5 0 1 0 6 0v-2.008h32v2.008a5 5 0 1 0 6 0v-2.008h5a1 1 0 0 1 1 1v11h-56v-11a1 1 0 0 1 1-1zm54 52h-54a1 1 0 0 1 -1-1v-37h56v37a1 1 0 0 1 -1 1z"/><path d="m21 18h22a1 1 0 0 0 1-1v-6a1 1 0 0 0 -1-1h-22a1 1 0 0 0 -1 1v6a1 1 0 0 0 1 1zm1-6h20v4h-20z"/><path d="m24 13h2v2h-2z"/><path d="m28 13h12v2h-12z"/><path d="m57 24h-50a1 1 0 0 0 -1 1v32a1 1 0 0 0 1 1h50a1 1 0 0 0 1-1v-32a1 1 0 0 0 -1-1zm-1 8h-5v-6h5zm-29 8h-5v-6h5zm2-6h6v6h-6zm-2 8v6h-5v-6zm2 0h6v6h-6zm8 0h5v6h-5zm0-2v-6h5v6zm7-6h5v6h-5zm0-2v-6h5v6zm-2 0h-5v-6h5zm-7 0h-6v-6h6zm-8 0h-5v-6h5zm-7 0h-5v-6h5zm0 2v6h-5v-6zm-7 6h-5v-6h5zm0 2v6h-5v-6zm2 0h5v6h-5zm5 8v6h-5v-6zm2 0h5v6h-5zm7 0h6v6h-6zm8 0h5v6h-5zm7 0h5v6h-5zm0-2v-6h5v6zm7-6h5v6h-5zm0-2v-6h5v6zm-38-14v6h-5v-6zm-5 24h5v6h-5zm43 6v-6h5v6z"/></g></svg>