<svg height="512" viewBox="0 0 64 64" width="512" xmlns="http://www.w3.org/2000/svg"><path d="m55 53a2.006 2.006 0 0 0 2-2v-46a2.006 2.006 0 0 0 -2-2h-25a2.006 2.006 0 0 1 2 2 2.015 2.015 0 0 0 2 2h15a2.006 2.006 0 0 1 2 2v44z" fill="#9bc9ff"/><path d="m7 59a2.006 2.006 0 0 0 2 2h34a2.006 2.006 0 0 0 2-2v-46a2.006 2.006 0 0 0 -2-2h-7v2a2.006 2.006 0 0 1 -2 2h-16a2.006 2.006 0 0 1 -2-2v-2h-7a2.006 2.006 0 0 0 -2 2zm6-38h8v8h-8zm0 14h8v8h-8z" fill="#9bc9ff"/><g fill="#57a4ff"><path d="m55 2h-14v2h14a1 1 0 0 1 1 1v46a1 1 0 0 1 -1 1h-3v-43a3 3 0 0 0 -3-3h-10v2h10a1 1 0 0 1 1 1v46a1 1 0 0 1 -1 1h-3v-43a3 3 0 0 0 -3-3h-6v-1a3 3 0 0 0 -3-3 1 1 0 0 1 -1-1 3 3 0 0 0 -3-3h-8a3 3 0 0 0 -3 3 1 1 0 0 1 -1 1 3 3 0 0 0 -3 3v1h-6a3 3 0 0 0 -3 3v46a3 3 0 0 0 3 3h34a3 3 0 0 0 3-3v-1h3a3 3 0 0 0 3-3v-1h3a3 3 0 0 0 3-3v-46a3 3 0 0 0 -3-3zm-38 7a1 1 0 0 1 1-1 3 3 0 0 0 3-3 1 1 0 0 1 1-1h8a1 1 0 0 1 1 1 3 3 0 0 0 3 3 1 1 0 0 1 1 1v4a1 1 0 0 1 -1 1h-16a1 1 0 0 1 -1-1zm27 50a1 1 0 0 1 -1 1h-34a1 1 0 0 1 -1-1v-46a1 1 0 0 1 1-1h6v1a3 3 0 0 0 3 3h16a3 3 0 0 0 3-3v-1h6a1 1 0 0 1 1 1z"/><path d="m23 6h6v2h-6z"/><path d="m13 30h8a1 1 0 0 0 1-1v-8a1 1 0 0 0 -1-1h-8a1 1 0 0 0 -1 1v8a1 1 0 0 0 1 1zm1-8h6v6h-6z"/><path d="m13 44h8a1 1 0 0 0 1-1v-8a1 1 0 0 0 -1-1h-8a1 1 0 0 0 -1 1v8a1 1 0 0 0 1 1zm1-8h6v6h-6z"/><path d="m12 48h28v2h-28z"/><path d="m12 54h28v2h-28z"/><path d="m26 21h4v2h-4z"/><path d="m32 21h8v2h-8z"/><path d="m26 27h4v2h-4z"/><path d="m32 27h8v2h-8z"/><path d="m26 35h4v2h-4z"/><path d="m32 35h8v2h-8z"/><path d="m26 41h4v2h-4z"/><path d="m32 41h8v2h-8z"/></g></svg>