<?xml version="1.0"?>
<svg xmlns="http://www.w3.org/2000/svg" viewBox="0 0 64 64" width="512" height="512"><g id="Clock"><path d="M32,3A29,29,0,1,0,61,32,29,29,0,0,0,32,3Zm0,47a18,18,0,0,1-2-35.89V30H23a2.015,2.015,0,0,0-2,2,2.006,2.006,0,0,0,2,2h6.77A2.94,2.94,0,0,0,32,35a3,3,0,0,0,3-3,2.94,2.94,0,0,0-1-2.23V14.11A18,18,0,0,1,32,50Z" style="fill:#9bc9ff"/><path d="M32,2A30,30,0,1,0,62,32,30.034,30.034,0,0,0,32,2ZM46.85,55.721l-2.484-4.3-1.732,1,2.487,4.307A27.815,27.815,0,0,1,33,59.975V55H31v4.975a27.815,27.815,0,0,1-12.121-3.249l2.487-4.307-1.732-1-2.484,4.3A28.2,28.2,0,0,1,8.279,46.85l4.3-2.484-1-1.732L7.274,45.121A27.815,27.815,0,0,1,4.025,33H9V31H4.025A27.815,27.815,0,0,1,7.274,18.879l4.308,2.487,1-1.732-4.3-2.484A28.2,28.2,0,0,1,17.15,8.279l2.484,4.3,1.732-1L18.879,7.274A27.815,27.815,0,0,1,31,4.025V9h2V4.025A27.815,27.815,0,0,1,45.121,7.274l-2.487,4.307,1.732,1,2.484-4.3a28.2,28.2,0,0,1,8.871,8.871l-4.3,2.484,1,1.732,4.308-2.487A27.815,27.815,0,0,1,59.975,31H55v2h4.975a27.815,27.815,0,0,1-3.249,12.121l-4.308-2.487-1,1.732,4.3,2.484A28.2,28.2,0,0,1,46.85,55.721Z" style="fill:#57a4ff"/><path d="M34.892,13.24a2.864,2.864,0,0,0-.766-1.347A2.935,2.935,0,0,0,32,11a3,3,0,0,0-2.89,2.24,19,19,0,1,0,5.782,0ZM28.142,33H23a1,1,0,0,1-1-1,.978.978,0,0,1,.306-.713A.965.965,0,0,1,23,31h5.142a3.592,3.592,0,0,0,0,2ZM32,30a2,2,0,1,1-2,2A2,2,0,0,1,32,30Zm0-17a.978.978,0,0,1,.712.306A.957.957,0,0,1,33,14V28.142a3.592,3.592,0,0,0-2,0V14A1,1,0,0,1,32,13Zm0,36a16.992,16.992,0,0,1-3-33.719V29H23a3.015,3.015,0,0,0-3,3,3,3,0,0,0,3,3h6.382A3.98,3.98,0,0,0,35,29.382v-14.1A16.992,16.992,0,0,1,32,49Z" style="fill:#57a4ff"/></g></svg>
