<svg height="512" viewBox="0 0 64 64" width="512" xmlns="http://www.w3.org/2000/svg"><g id="Coffee_Cup" data-name="Coffee Cup"><path d="m51 55v-4-8-4-4h-24v22h24z" fill="#9bc9ff"/><path d="m3.61 21a4.992 4.992 0 0 0 5.57 2.34 5 5 0 0 0 9.64 0 5 5 0 0 0 4.81-8.34 5 5 0 0 0 -4.81-8.34 5 5 0 0 0 -9.64 0 5 5 0 0 0 -4.81 8.34 5 5 0 0 0 -.76 6zm10.39-10a4 4 0 1 1 -4 4 4 4 0 0 1 4-4z" fill="#9bc9ff"/><path d="m5 43 2 18h14l2-18h-9z" fill="#9bc9ff"/><g fill="#57a4ff"><path d="m57 38h-5v-3a1 1 0 0 0 -1-1h-24a1 1 0 0 0 -1 1v22a.978.978 0 0 0 .115.443h-.01l2 4a1 1 0 0 0 .895.557h20a1 1 0 0 0 .9-.553l2-4h-.009a.991.991 0 0 0 .109-.447v-1h5a5.006 5.006 0 0 0 5-5v-8a5.006 5.006 0 0 0 -5-5zm-5 6h4v6h-4zm-24-8h22v20h-22zm20.382 24h-18.764l-1-2h20.764zm11.618-9a3 3 0 0 1 -3 3h-5v-2h5a1 1 0 0 0 1-1v-8a1 1 0 0 0 -1-1h-5v-2h5a3 3 0 0 1 3 3z"/><path d="m14 10a5 5 0 1 0 5 5 5.006 5.006 0 0 0 -5-5zm0 8a3 3 0 1 1 3-3 3 3 0 0 1 -3 3z"/><path d="m24.933 15a6 6 0 0 0 -5.463-9.47 6 6 0 0 0 -10.94 0 6 6 0 0 0 -5.463 9.47 6 6 0 0 0 5.463 9.47 6.038 6.038 0 0 0 4.47 3.438v14.092h-8a1 1 0 0 0 -.994 1.11l2 18a1 1 0 0 0 .994.89h14a1 1 0 0 0 .994-.89l2-18a1 1 0 0 0 -.994-1.11h-8v-14.092a6.038 6.038 0 0 0 4.47-3.438 6 6 0 0 0 5.463-9.47zm-4.833 45h-12.2l-1.783-16h15.766zm2.812-44.3a4 4 0 0 1 -3.844 6.672 1.008 1.008 0 0 0 -1.215.7 4 4 0 0 1 -7.714 0 1 1 0 0 0 -.962-.73 1.044 1.044 0 0 0 -.253.032 4 4 0 0 1 -3.84-6.674 1 1 0 0 0 0-1.4 4 4 0 0 1 3.844-6.672 1 1 0 0 0 1.215-.7 4 4 0 0 1 7.714 0 1.007 1.007 0 0 0 1.215.7 4 4 0 0 1 3.844 6.672 1 1 0 0 0 0 1.4z"/><path d="m36.4 24.2c-1.069.8-2.4 1.8-2.4 3.8h2c0-.954.578-1.435 1.6-2.2 1.069-.8 2.4-1.8 2.4-3.8s-1.331-3-2.4-3.8c-1.022-.768-1.6-1.249-1.6-2.2s.578-1.432 1.6-2.2c1.069-.8 2.4-1.8 2.4-3.8h-2c0 .953-.578 1.433-1.6 2.2-1.069.8-2.4 1.8-2.4 3.8s1.331 3 2.4 3.8c1.023.766 1.6 1.247 1.6 2.2s-.578 1.433-1.6 2.2z"/><path d="m44.4 24.2c-1.069.8-2.4 1.8-2.4 3.8h2c0-.954.578-1.435 1.6-2.2 1.069-.8 2.4-1.8 2.4-3.8s-1.331-3-2.4-3.8c-1.022-.768-1.6-1.249-1.6-2.2s.578-1.432 1.6-2.2c1.069-.8 2.4-1.8 2.4-3.8h-2c0 .953-.578 1.433-1.6 2.2-1.069.8-2.4 1.8-2.4 3.8s1.331 3 2.4 3.8c1.023.766 1.6 1.247 1.6 2.2s-.578 1.433-1.6 2.2z"/><path d="m46 38h2v2h-2z"/><path d="m46 42h2v6h-2z"/><path d="m18 46h2v2h-2z"/><path d="m14 46h2v2h-2z"/></g></g></svg>