<svg height="512" viewBox="0 0 64 64" width="512" xmlns="http://www.w3.org/2000/svg"><g id="Contact_Book" data-name="Contact Book"><path d="m7 61h42v-58h-42zm29-6h-16v-12a4 4 0 0 1 4-4h4a6 6 0 1 1 6-6 6 6 0 0 1 -6 6h4a4 4 0 0 1 4 4zm-23-38v-8h30v12h-30z" fill="#9bc9ff"/><g fill="#57a4ff"><path d="m59 2h-56a1 1 0 0 0 -1 1v58a1 1 0 0 0 1 1h56a3 3 0 0 0 3-3v-54a3 3 0 0 0 -3-3zm-55 2h2v56h-2zm4 0h40v56h-40zm52 55a1 1 0 0 1 -1 1h-9v-56h9a1 1 0 0 1 1 1z"/><path d="m54 8h2v48h-2z"/><path d="m43 8h-30a1 1 0 0 0 -1 1v12a1 1 0 0 0 1 1h30a1 1 0 0 0 1-1v-12a1 1 0 0 0 -1-1zm-1 12h-28v-10h28z"/><path d="m32.8 38.081a7 7 0 1 0 -9.6 0 5 5 0 0 0 -4.2 4.919v12a1 1 0 0 0 1 1h16a1 1 0 0 0 1-1v-12a5 5 0 0 0 -4.2-4.919zm-9.8-5.081a5 5 0 1 1 5 5 5.006 5.006 0 0 1 -5-5zm12 21h-14v-11a3 3 0 0 1 3-3h8a3 3 0 0 1 3 3z"/><path d="m16 12h4v2h-4z"/><path d="m22 12h18v2h-18z"/><path d="m16 16h4v2h-4z"/><path d="m22 16h18v2h-18z"/></g></g></svg>