<svg height="512" viewBox="0 0 64 64" width="512" xmlns="http://www.w3.org/2000/svg"><g id="Desk-2" data-name="Desk"><path d="m53 27v-18h-4v18h-4v-22h-4v22h-14-12-12v4h2v30h4v-30h28 22 2v-4h-4z" fill="#9bc9ff"/><path d="m37 41h22v10h-22z" fill="#9bc9ff"/><path d="m9 21h24a2.006 2.006 0 0 0 2-2v-14a2.006 2.006 0 0 0 -2-2h-24a2.006 2.006 0 0 0 -2 2v14a2.006 2.006 0 0 0 2 2z" fill="#9bc9ff"/><g fill="#57a4ff"><path d="m61 26h-3v-17a1 1 0 0 0 -1-1h-7v-3a1 1 0 0 0 -1-1h-8a1 1 0 0 0 -1 1v21h-12.465l-2.667-4h8.132a3 3 0 0 0 3-3v-14a3 3 0 0 0 -3-3h-24a3 3 0 0 0 -3 3v14a3 3 0 0 0 3 3h8.132l-2.667 4h-11.465a1 1 0 0 0 -1 1v4a1 1 0 0 0 1 1h1v29a1 1 0 0 0 1 1h4a1 1 0 0 0 1-1v-29h26v29a1 1 0 0 0 1 1h22a1 1 0 0 0 1-1v-29h1a1 1 0 0 0 1-1v-4a1 1 0 0 0 -1-1zm-5-16v16h-2v-16zm-4 0v16h-2v-16zm-4 16h-2v-20h2zm-6-20h2v20h-2zm-34 13v-14a1 1 0 0 1 1-1h24a1 1 0 0 1 1 1v14a1 1 0 0 1 -1 1h-24a1 1 0 0 1 -1-1zm11.535 3h2.93l2.667 4h-8.264zm-11.535 38h-2v-28h2zm30-18h20v8h-20zm0 18v-8h20v8zm20-20h-20v-8h20zm2-10h-56v-2h56z"/><path d="m46 34h4v2h-4z"/><path d="m46 44h4v2h-4z"/><path d="m46 54h4v2h-4z"/><path d="m31 6h-3v2h2v2h2v-3a1 1 0 0 0 -1-1z"/><path d="m30 11h2v2h-2z"/></g></g></svg>