<svg height="512" viewBox="0 0 64 64" width="512" xmlns="http://www.w3.org/2000/svg"><path d="m43.59 27h-23.18-7.41-4-4-2v6h2v28h4v-28h11.76 22.48 11.76v28h4v-28h2v-6h-8z" fill="#9bc9ff"/><path d="m24 41h-6v4h4v16h4v-16h12v16h4v-16h4v-4h-6z" fill="#9bc9ff"/><g fill="#57a4ff"><path d="m61 26h-4.026a4.954 4.954 0 0 0 .925-2h1.101a3 3 0 0 0 0-6h-10a1 1 0 0 0 -1 1v4a4.948 4.948 0 0 0 1.026 3h-4.376l1.224-20.824a3 3 0 0 0 -3-3.176h-21.753a3 3 0 0 0 -2.995 3.176l1.224 20.824h-5.35v-11a1 1 0 0 0 -1-1h-3v-3a1 1 0 0 0 -1-1h-4a1 1 0 0 0 -1 1v15h-1a1 1 0 0 0 -1 1v6a1 1 0 0 0 1 1h1v27a1 1 0 0 0 1 1h4a1 1 0 0 0 1-1v-27h9.818l.182 3.06a1 1 0 0 0 1 .94h2v2h-5a1 1 0 0 0 -1 1v4a1 1 0 0 0 1 1h3v15a1 1 0 0 0 1 1h4a1 1 0 0 0 1-1v-15h10v15a1 1 0 0 0 1 1h4a1 1 0 0 0 1-1v-15h3a1 1 0 0 0 1-1v-4a1 1 0 0 0 -1-1h-5v-2h2a1 1 0 0 0 1-.94l.182-3.06h9.818v27a1 1 0 0 0 1 1h4a1 1 0 0 0 1-1v-27h1a1 1 0 0 0 1-1v-6a1 1 0 0 0 -1-1zm-1-5a1 1 0 0 1 -1 1h-1v-2h1a1 1 0 0 1 1 1zm-10 2v-3h6v3a3 3 0 0 1 -6 0zm-29.877-17.941a1 1 0 0 1 1-1.059h21.756a1 1 0 0 1 1 1.059l-1.232 20.941h-21.294zm-8.123 10.941v10h-2v-10zm-6-4h2v14h-2zm2 48h-2v-26h2zm17 0h-2v-14h2zm16 0h-2v-14h2zm4-16h-26v-2h26zm-6-4h-14v-2h14zm3.058-4h-20.116l-.12-2h20.356zm15.942 24h-2v-26h2zm2-28h-56v-4h56z"/><path d="m50 12h2v4h-2z"/><path d="m54 12h2v4h-2z"/><path d="m23 7h18v2h-18z"/><path d="m23 11h18v2h-18z"/><path d="m23 15h18v2h-18z"/><path d="m23 19h18v2h-18z"/></g></svg>