<svg height="512" viewBox="0 0 64 64" width="512" xmlns="http://www.w3.org/2000/svg"><path d="m49 61h6a2.006 2.006 0 0 0 2-2v-8a2.006 2.006 0 0 0 -2-2v-20a2.015 2.015 0 0 0 2-2v-8a2.006 2.006 0 0 0 -2-2h-6a2.006 2.006 0 0 0 -2 2v8a2.006 2.006 0 0 0 2 2v20a2.015 2.015 0 0 0 -2 2v8a2.006 2.006 0 0 0 2 2z" fill="#9bc9ff"/><path d="m38 27h4v-10h-2v-14h-32v14h-2v10h4z" fill="#9bc9ff"/><path d="m13 31h22v6h-22z" fill="#9bc9ff"/><path d="m7 57h6v4h-6z" fill="#9bc9ff"/><g fill="#57a4ff"><path d="m61 26h-3v-7a3 3 0 0 0 -3-3h-6a3 3 0 0 0 -3 3v7h-3v-9a1 1 0 0 0 -1-1h-1v-13a1 1 0 0 0 -1-1h-32a1 1 0 0 0 -1 1v13h-1a1 1 0 0 0 -1 1v9h-2a1 1 0 0 0 -1 1v30a1 1 0 0 0 1 1h3v3a1 1 0 0 0 1 1h6a1 1 0 0 0 1-1v-3h32v1a3 3 0 0 0 3 3h6a3 3 0 0 0 3-3v-1h3a1 1 0 0 0 1-1v-30a1 1 0 0 0 -1-1zm-22 0v-8h2v8zm-30-22h30v12h-1a1 1 0 0 0 -1 1v9h-26v-9a1 1 0 0 0 -1-1h-1zm-2 14h2v8h-2zm5 42h-4v-2h4zm-8-4v-28h42.176a3.015 3.015 0 0 0 1.824 1.829v18.342a3.006 3.006 0 0 0 -2 2.829v5zm52 3a1 1 0 0 1 -1 1h-6a1 1 0 0 1 -1-1v-8a1 1 0 0 1 1-1 1 1 0 0 0 1-1v-20a1 1 0 0 0 -1-1 1 1 0 0 1 -1-1v-8a1 1 0 0 1 1-1h6a1 1 0 0 1 1 1v8a1 1 0 0 1 -1 1 1 1 0 0 0 -1 1v20a1 1 0 0 0 1 1 1 1 0 0 1 1 1zm4-3h-2v-5a3.006 3.006 0 0 0 -2-2.829v-18.342a3.015 3.015 0 0 0 1.824-1.829h2.176z"/><path d="m35 30h-22a1 1 0 0 0 -1 1v6a1 1 0 0 0 1 1h22a1 1 0 0 0 1-1v-6a1 1 0 0 0 -1-1zm-1 6h-20v-4h20z"/><path d="m13 40h4v2h-4z"/><path d="m19 40h4v2h-4z"/><path d="m25 40h4v2h-4z"/><path d="m31 40h4v2h-4z"/><path d="m13 44h4v2h-4z"/><path d="m19 44h4v2h-4z"/><path d="m25 44h4v2h-4z"/><path d="m31 44h4v2h-4z"/><path d="m13 48h4v2h-4z"/><path d="m19 48h4v2h-4z"/><path d="m25 48h4v2h-4z"/><path d="m31 48h4v2h-4z"/><path d="m42 33h2v18h-2z"/><path d="m6 30h4v2h-4z"/><path d="m8 49h-2v4a1 1 0 0 0 1 1h4v-2h-3z"/><path d="m6 45h2v2h-2z"/><path d="m13 6h4v2h-4z"/><path d="m13 10h4v2h-4z"/><path d="m19 6h8v2h-8z"/><path d="m19 10h8v2h-8z"/><path d="m13 18h22v2h-22z"/><path d="m13 14h22v2h-22z"/><path d="m13 22h22v2h-22z"/><path d="m13 52h22v2h-22z"/></g></svg>