<svg height="512" viewBox="0 0 64 64" width="512" xmlns="http://www.w3.org/2000/svg"><path d="m42 49v2a2.006 2.006 0 0 1 -2 2h-16a2.006 2.006 0 0 1 -2-2v-2h-19v4a4 4 0 0 0 4 4h50a4 4 0 0 0 4-4v-4z" fill="#9bc9ff"/><path d="m8 11v34h48v-34a1 1 0 0 0 -1-1h-46a1 1 0 0 0 -1 1z" fill="#9bc9ff"/><g fill="#57a4ff"><path d="m61 48h-1v-37a5.006 5.006 0 0 0 -5-5h-46a5.006 5.006 0 0 0 -5 5v37h-1a1 1 0 0 0 -1 1v4a5.006 5.006 0 0 0 5 5h50a5.006 5.006 0 0 0 5-5v-4a1 1 0 0 0 -1-1zm-55-37a3 3 0 0 1 3-3h46a3 3 0 0 1 3 3v37h-16a1 1 0 0 0 -1 1v2a1 1 0 0 1 -1 1h-16a1 1 0 0 1 -1-1v-2a1 1 0 0 0 -1-1h-16zm54 42a3 3 0 0 1 -3 3h-50a3 3 0 0 1 -3-3v-3h17v1a3 3 0 0 0 3 3h16a3 3 0 0 0 3-3v-1h17z"/><path d="m57 45v-34a2 2 0 0 0 -2-2h-46a2 2 0 0 0 -2 2v34a1 1 0 0 0 1 1h48a1 1 0 0 0 1-1zm-2-1h-46v-33h46z"/><path d="m51 19h2v-5a1 1 0 0 0 -1-1h-3v2h2z"/><path d="m45 13h2v2h-2z"/><path d="m30 48h4v2h-4z"/><path d="m8 52h2v2h-2z"/><path d="m12 52h6v2h-6z"/><path d="m54 52h2v2h-2z"/><path d="m46 52h6v2h-6z"/></g></svg>