<svg height="512" viewBox="0 0 64 64" width="512" xmlns="http://www.w3.org/2000/svg"><g fill="#9bc9ff"><path d="m53 53v-48a2.006 2.006 0 0 0 -2-2h-4v52h4a2.006 2.006 0 0 0 2-2z"/><path d="m43 27v-6-6-6-6h-32v6 6 6 6 6h32z"/><path d="m18 59 3 2v-6h-6v6z"/></g><path d="m51 2h-40a1 1 0 0 0 -1 1v52a1 1 0 0 0 1 1h3v5a1 1 0 0 0 1.555.832l2.445-1.632 2.445 1.63a1 1 0 0 0 1.555-.83v-5h29a3 3 0 0 0 3-3v-48a3 3 0 0 0 -3-3zm-9 12h-30v-4h30zm0 2v4h-30v-4zm0 6v4h-30v-4zm0 6v4h-30v-4zm2-24h2v50h-2zm-2 0v4h-30v-4zm-30 30h30v20h-30zm8 25.131-1.445-.963a1 1 0 0 0 -1.11 0l-1.445.963v-3.131h4zm32-6.131a1 1 0 0 1 -1 1h-3v-50h3a1 1 0 0 1 1 1z" fill="#57a4ff"/><path d="m39 38h-24a1 1 0 0 0 -1 1v12a1 1 0 0 0 1 1h24a1 1 0 0 0 1-1v-12a1 1 0 0 0 -1-1zm-1 12h-22v-10h22z" fill="#57a4ff"/></svg>