<svg height="512" viewBox="0 0 64 64" width="512" xmlns="http://www.w3.org/2000/svg"><path d="m11 7h41l.01.11a1.979 1.979 0 0 1 1.48.58l2.82 2.82a1.979 1.979 0 0 1 .58 1.48l.11.01v39h4v-48h-50z" fill="#9bc9ff"/><path d="m53 55v-38.34l-2.34 2.34.7.71a2 2 0 0 1 0 2.83l-2.82 2.82-4.95-4.95-4.95-4.95 2.82-2.82a2 2 0 0 1 2.83 0l.71.7 2.34-2.34h-32.34v12h-12v38h50zm-42 0a2 2 0 1 1 2-2 2.006 2.006 0 0 1 -2 2zm0-10a2 2 0 1 1 2-2 2.006 2.006 0 0 1 -2 2zm0-10a2 2 0 1 1 2-2 2.006 2.006 0 0 1 -2 2z" fill="#9bc9ff"/><g fill="#57a4ff"><path d="m11 30a3 3 0 1 0 3 3 3 3 0 0 0 -3-3zm0 4a1 1 0 1 1 1-1 1 1 0 0 1 -1 1z"/><path d="m16 32h32v2h-32z"/><path d="m11 40a3 3 0 1 0 3 3 3 3 0 0 0 -3-3zm0 4a1 1 0 1 1 1-1 1 1 0 0 1 -1 1z"/><path d="m16 42h32v2h-32z"/><path d="m11 50a3 3 0 1 0 3 3 3 3 0 0 0 -3-3zm0 4a1 1 0 1 1 1-1 1 1 0 0 1 -1 1z"/><path d="m16 52h32v2h-32z"/><path d="m61 2h-50a1 1 0 0 0 -1 1v3h-3a1 1 0 0 0 -1 1v11.586l-3.707 3.707a1 1 0 0 0 -.284.707h-.009v38a1 1 0 0 0 1 1h50a1 1 0 0 0 1-1v-5h3a1 1 0 0 0 1-1v-3h3a1 1 0 0 0 1-1v-48a1 1 0 0 0 -1-1zm-47 11.414v8.586h-8.586zm46 36.586h-2v-28h-2v32h-2v-29h-2v35h-48v-36h11a1 1 0 0 0 1-1v-11h23v-2h-24v.009a.991.991 0 0 0 -.707.284l-6.293 6.293v-8.586h34v-2h-30v-2h48z"/><path d="m37.929 14.757a1 1 0 0 0 0 1.414l4.243 4.243-7.778 7.778 1.414 1.414 7.778-7.778 4.243 4.243a1 1 0 0 0 1.414 0l2.828-2.828a3 3 0 0 0 0-4.243l4.95-4.95a3 3 0 0 0 0-4.242l-2.829-2.829a3 3 0 0 0 -4.242 0l-4.95 4.95a3 3 0 0 0 -4.243 0zm5.657-1.414.707.707a1 1 0 0 0 1.414 0l5.657-5.656a1 1 0 0 1 1.414 0l2.828 2.828a1 1 0 0 1 0 1.414l-5.656 5.657a1 1 0 0 0 0 1.414l.707.707a1 1 0 0 1 0 1.415l-2.121 2.121-8.486-8.486 2.121-2.121a1 1 0 0 1 1.415 0z"/></g></svg>