<svg height="512" viewBox="0 0 64 64" width="512" xmlns="http://www.w3.org/2000/svg"><g id="Pencil_Case" data-name="Pencil Case"><path d="m42 11v24h10v-8-4-4-4-4-4-4h-10z" fill="#9bc9ff"/><path d="m48 57h3l2-18h-5-37l2 18z" fill="#9bc9ff"/><path d="m26 7v28h8v-28a4 4 0 0 0 -8 0z" fill="#9bc9ff"/><path d="m12.51 19.12.97-.26 4.33 16.14h4.14l-4.61-17.18.97-.26-3.37-12.55a3 3 0 1 0 -5.79 1.55z" fill="#9bc9ff"/><g fill="#57a4ff"><path d="m11.306 5.75h2v2h-2z" transform="matrix(.966 -.259 .259 .966 -1.328 3.415)"/><path d="m12.859 9.545h2v6.001h-2z" transform="matrix(.966 -.259 .259 .966 -2.776 4.016)"/><path d="m55 34h-2v-31a1 1 0 0 0 -1-1h-10a1 1 0 0 0 -1 1v3.764l-2.1-4.211a1.042 1.042 0 0 0 -1.79 0l-2.13 4.247a4.992 4.992 0 0 0 -9.98.2v27h-2.283l-4.151-15.469a1 1 0 0 0 .707-1.224l-3.362-12.559a4 4 0 1 0 -7.727 2.071l3.105 11.591-2.9.777a1 1 0 0 0 -.707 1.224l2.587 9.659 1.932-.517-2.326-8.694 2.9-.776 3.731 13.917h-7.506a1 1 0 0 0 -1 1v4a1 1 0 0 0 1 1h1.105l1.778 16h-.883a1 1 0 0 0 -1 1v4a1 1 0 0 0 1 1h42a1 1 0 0 0 1-1v-4a1 1 0 0 0 -1-1h-.883l1.783-16h1.1a1 1 0 0 0 1-1v-4a1 1 0 0 0 -1-1zm-12-30h8v2h-5v2h5v2h-3v2h3v2h-5v2h5v2h-3v2h3v2h-5v2h5v2h-3v2h3v6h-8zm-4 30v-22h2v22zm-8 0v-22h2v22zm2-24h-6v-1h6zm2 2h2v22h-2zm3-6.764 2.382 4.764h-4.764zm-8-1.236a3 3 0 0 1 3 3h-6a3 3 0 0 1 3-3zm-3 8h2v22h-2zm-16.685-7.217a1.989 1.989 0 0 1 1.214-.931 2 2 0 0 1 2.45 1.414l3.106 11.591-3.864 1.036-3.106-11.593a2 2 0 0 1 .2-1.517zm4.39 14.782 1.929-.517 4.013 14.952h-2.07zm37.295 40.435h-40v-2h40zm-1.9-4h-36.2l-1.783-16h39.766zm3.9-18h-44v-2h44z"/><path d="m47 46h2v8h-2z"/><path d="m47 42h2v2h-2z"/></g></g></svg>