<svg height="512" viewBox="0 0 64 64" width="512" xmlns="http://www.w3.org/2000/svg"><g id="Projector_Screen" data-name="Projector Screen"><path d="m59 43h-2.84a9.881 9.881 0 0 1 .84 4 10 10 0 0 1 -20 0 9.881 9.881 0 0 1 .84-4h-26.84a2.006 2.006 0 0 0 -2 2v1h-6v4h6v9a2.006 2.006 0 0 0 2 2h48a2.006 2.006 0 0 0 2-2v-14a2.006 2.006 0 0 0 -2-2zm-38 8h-8v-4h8z" fill="#9bc9ff"/><path d="m55 7h2v-4h-54v4h2z" fill="#9bc9ff"/><circle cx="47" cy="47" fill="#9bc9ff" r="6"/><path d="m35 37v-6-6-6-6h-6v24z" fill="#9bc9ff"/><path d="m19 17h6v20h-6z" fill="#9bc9ff"/><path d="m9 21h6v16h-6z" fill="#9bc9ff"/><g fill="#57a4ff"><path d="m9 38h6a1 1 0 0 0 1-1v-16a1 1 0 0 0 -1-1h-6a1 1 0 0 0 -1 1v16a1 1 0 0 0 1 1zm1-16h4v14h-4z"/><path d="m19 38h6a1 1 0 0 0 1-1v-20a1 1 0 0 0 -1-1h-6a1 1 0 0 0 -1 1v20a1 1 0 0 0 1 1zm1-20h4v18h-4z"/><path d="m29 38h6a1 1 0 0 0 1-1v-24a1 1 0 0 0 -1-1h-6a1 1 0 0 0 -1 1v24a1 1 0 0 0 1 1zm1-24h4v22h-4z"/><path d="m42 12h2v2h-2z"/><path d="m38 12h2v2h-2z"/><path d="m46 12h6v2h-6z"/><path d="m42 18h2v2h-2z"/><path d="m46 18h2v2h-2z"/><path d="m38 18h2v2h-2z"/><path d="m50 18h2v2h-2z"/><path d="m42 24h2v2h-2z"/><path d="m38 24h2v2h-2z"/><path d="m46 24h6v2h-6z"/><path d="m38 30h14v2h-14z"/><path d="m59 42h-2.214a11.1 11.1 0 0 0 -.786-1.3v-32.7h1a1 1 0 0 0 1-1v-4a1 1 0 0 0 -1-1h-54a1 1 0 0 0 -1 1v4a1 1 0 0 0 1 1h1v37h-1a1 1 0 0 0 -1 1v4a1 1 0 0 0 1 1h5v8a3 3 0 0 0 3 3h48a3 3 0 0 0 3-3v-14a3 3 0 0 0 -3-3zm-3 5a9 9 0 1 1 -9-9 9.01 9.01 0 0 1 9 9zm-52-43h52v2h-52zm2 4h48v30.521a10.98 10.98 0 0 0 -16.786 3.479h-26.214a3 3 0 0 0 -3 3h-2zm-2 41v-2h4v2zm56 10a1 1 0 0 1 -1 1h-48a1 1 0 0 1 -1-1v-14a1 1 0 0 1 1-1h25.426a11 11 0 1 0 21.148 0h1.426a1 1 0 0 1 1 1z"/><path d="m47 40a7 7 0 1 0 7 7 7.008 7.008 0 0 0 -7-7zm0 12a5 5 0 1 1 5-5 5.006 5.006 0 0 1 -5 5z"/><path d="m13 52h8a1 1 0 0 0 1-1v-4a1 1 0 0 0 -1-1h-8a1 1 0 0 0 -1 1v4a1 1 0 0 0 1 1zm1-4h6v2h-6z"/><path d="m12 56h4v2h-4z"/><path d="m18 56h16v2h-16z"/><path d="m24 46h4v2h-4z"/><path d="m30 46h4v2h-4z"/><path d="m24 50h4v2h-4z"/><path d="m30 50h4v2h-4z"/></g></g></svg>