<svg height="512" viewBox="0 0 64 64" width="512" xmlns="http://www.w3.org/2000/svg"><path d="m55 19a2.006 2.006 0 0 0 -2-2h-8v4h6v18a2.006 2.006 0 0 0 2 2h8v-4h-6z" fill="#9bc9ff"/><path d="m13 57h28v-48a6 6 0 0 0 -6-6h-26a6 6 0 0 0 -6 6v48zm7-45.8v7.57a2.94 2.94 0 0 0 -1 2.23 3 3 0 0 0 6 0 2.94 2.94 0 0 0 -1-2.23v-7.57a10 10 0 1 1 -4 0zm-11 23.8h26v16h-26z" fill="#9bc9ff"/><g fill="#57a4ff"><path d="m35 34h-26a1 1 0 0 0 -1 1v16a1 1 0 0 0 1 1h26a1 1 0 0 0 1-1v-16a1 1 0 0 0 -1-1zm-1 16h-24v-14h24z"/><path d="m22 32a11 11 0 0 0 3-21.579v-1.421a1 1 0 0 0 -1-1h-4a1 1 0 0 0 -1 1v1.421a11 11 0 0 0 3 21.579zm0-13a2 2 0 1 1 -2 2 2 2 0 0 1 2-2zm1-9v7.142a3.592 3.592 0 0 0 -2 0v-7.142zm-4 2.522v5.86a4 4 0 1 0 6 0v-5.86a9 9 0 1 1 -6 0z"/><path d="m61 36h-5v-17a3 3 0 0 0 -3-3h-7v-2a1 1 0 0 0 -1-1h-3v-4a7.008 7.008 0 0 0 -7-7h-26a7.008 7.008 0 0 0 -7 7v48a1 1 0 0 0 1 1h3v3a1 1 0 0 0 1 1h6a1 1 0 0 0 1-1v-3h16v3a1 1 0 0 0 1 1h6a1 1 0 0 0 1-1v-3h3a1 1 0 0 0 1-1v-32h3a1 1 0 0 0 1-1v-2h4v17a3 3 0 0 0 3 3h8a1 1 0 0 0 1-1v-4a1 1 0 0 0 -1-1zm-49 24h-4v-2h4zm24 0h-4v-2h4zm4-4h-36v-47a5.006 5.006 0 0 1 5-5h26a5.006 5.006 0 0 1 5 5zm4-33h-2v-8h2zm16 17h-7a1 1 0 0 1 -1-1v-18a1 1 0 0 0 -1-1h-5v-2h7a1 1 0 0 1 1 1v18a1 1 0 0 0 1 1h5z"/><path d="m12 41h2v2h-2z"/><path d="m13 48h2v-2h-1v-1h-2v2a1 1 0 0 0 1 1z"/></g></svg>