<svg height="512" viewBox="0 0 64 64" width="512" xmlns="http://www.w3.org/2000/svg"><path d="m9 43h2 5 5 5 5 5 5 5 5 4v-4h-46z" fill="#9bc9ff"/><path d="m52 3h-40v10h-3v10h6 34 6v-10h-3z" fill="#9bc9ff"/><path d="m21 27h22v8h-22z" fill="#9bc9ff"/><path d="m15 31v-4h-4-4v4h4z" fill="#9bc9ff"/><g fill="#57a4ff"><path d="m61 22h-5v-9a1 1 0 0 0 -1-1h-2v-9a1 1 0 0 0 -1-1h-40a1 1 0 0 0 -1 1v9h-2a1 1 0 0 0 -1 1v9h-5a1 1 0 0 0 -1 1v24a1 1 0 0 0 1 1h6.372l-.326 1.029a1 1 0 0 0 0 .6l1.905 6.034-1.905 6.037 1.908.6 2-6.335a1 1 0 0 0 0-.6l-1.905-6.035 1.684-5.33h2.9l-1.589 5.029a1 1 0 0 0 0 .6l1.905 6.034-1.903 6.037 1.908.6 2-6.335a1 1 0 0 0 0-.6l-1.905-6.035 1.684-5.33h2.9l-1.589 5.029a1 1 0 0 0 0 .6l1.905 6.034-1.903 6.037 1.908.6 2-6.335a1 1 0 0 0 0-.6l-1.905-6.035 1.684-5.33h2.9l-1.589 5.029a1 1 0 0 0 0 .6l1.905 6.034-1.903 6.037 1.908.6 2-6.335a1 1 0 0 0 0-.6l-1.905-6.035 1.684-5.33h2.9l-1.589 5.029a1 1 0 0 0 0 .6l1.905 6.034-1.903 6.037 1.908.6 2-6.335a1 1 0 0 0 0-.6l-1.905-6.035 1.684-5.33h2.9l-1.589 5.029a1 1 0 0 0 0 .6l1.905 6.034-1.903 6.037 1.908.6 2-6.335a1 1 0 0 0 0-.6l-1.905-6.035 1.684-5.33h2.9l-1.589 5.029a1 1 0 0 0 0 .6l1.905 6.034-1.903 6.037 1.908.6 2-6.335a1 1 0 0 0 0-.6l-1.905-6.035 1.684-5.33h2.9l-1.589 5.029a1 1 0 0 0 0 .6l1.905 6.034-1.903 6.037 1.908.6 2-6.335a1 1 0 0 0 0-.6l-1.905-6.035 1.684-5.33h2.9l-1.589 5.029a1 1 0 0 0 0 .6l1.905 6.034-1.903 6.037 1.908.6 2-6.335a1 1 0 0 0 0-.6l-1.905-6.035.42-1.33h9.531a1 1 0 0 0 1-1v-24a1 1 0 0 0 -1-1zm-7 0h-4v-8h4zm-41-18h38v8h-2a1 1 0 0 0 -1 1v9h-32v-9a1 1 0 0 0 -1-1h-2zm-3 10h4v8h-4zm0 28v-2h44v2zm50 4h-7.9l.632-2h2.268a1 1 0 0 0 1-1v-4a1 1 0 0 0 -1-1h-46a1 1 0 0 0 -1 1v4a1 1 0 0 0 1 1h1.635l-.635 2h-6v-22h56z"/><path d="m43 26h-22a1 1 0 0 0 -1 1v8a1 1 0 0 0 1 1h22a1 1 0 0 0 1-1v-8a1 1 0 0 0 -1-1zm-1 8h-20v-6h20z"/><path d="m15 26h-8a1 1 0 0 0 -1 1v4a1 1 0 0 0 1 1h8a1 1 0 0 0 1-1v-4a1 1 0 0 0 -1-1zm-7 2h2v2h-2zm6 2h-2v-2h2z"/><path d="m48 26h4v2h-4z"/><path d="m54 26h4v2h-4z"/><path d="m48 30h4v2h-4z"/><path d="m54 30h4v2h-4z"/><path d="m48 34h4v2h-4z"/><path d="m54 34h4v2h-4z"/><path d="m34 29h2v2h-2z"/><path d="m39 33h2v-3a1 1 0 0 0 -1-1h-3v2h2z"/></g></svg>