<svg height="512" viewBox="0 0 64 64" width="512" xmlns="http://www.w3.org/2000/svg"><path d="m59 19h-24v-12a4 4 0 0 0 -4-4h-24a4 4 0 0 0 -4 4v50a4 4 0 0 0 4 4h24a4 4 0 0 0 4-4v-18h8v8l8-8h8a2.006 2.006 0 0 0 2-2v-16a2.006 2.006 0 0 0 -2-2zm-28 36a2.006 2.006 0 0 1 -2 2h-3l-2-2h-10l-2 2h-3a2.006 2.006 0 0 1 -2-2v-46a2.006 2.006 0 0 1 2-2h3l2 2h10l2-2h3a2.006 2.006 0 0 1 2 2v10h-2a2.006 2.006 0 0 0 -2 2v15a4 4 0 0 0 -4-4h-8a4 4 0 0 0 -4 4v6h16v-5a2.006 2.006 0 0 0 2 2h2z" fill="#9bc9ff"/><circle cx="19" cy="27" fill="#9bc9ff" r="5"/><g fill="#57a4ff"><path d="m59 18h-23v-11a5.006 5.006 0 0 0 -5-5h-24a5.006 5.006 0 0 0 -5 5v50a5.006 5.006 0 0 0 5 5h24a5.006 5.006 0 0 0 5-5v-17h6v7a1 1 0 0 0 .617.924.987.987 0 0 0 .383.076 1 1 0 0 0 .707-.293l7.707-7.707h7.586a3 3 0 0 0 3-3v-16a3 3 0 0 0 -3-3zm-25 39a3 3 0 0 1 -3 3h-24a3 3 0 0 1 -3-3v-50a3 3 0 0 1 3-3h24a3 3 0 0 1 3 3v11h-2v-9a3 3 0 0 0 -3-3h-3a1 1 0 0 0 -.707.293l-1.707 1.707h-9.172l-1.707-1.707a1 1 0 0 0 -.707-.293h-3a3 3 0 0 0 -3 3v46a3 3 0 0 0 3 3h3a1 1 0 0 0 .707-.293l1.707-1.707h9.172l1.707 1.707a1 1 0 0 0 .707.293h3a3 3 0 0 0 3-3v-15h2zm-19-30a4 4 0 1 1 4 4 4 4 0 0 1 -4-4zm0 6h8a3 3 0 0 1 3 3v5h-14v-5a3 3 0 0 1 3-3zm11-12v11.026a4.94 4.94 0 0 0 -2.579-.983 6 6 0 1 0 -8.842 0 4.989 4.989 0 0 0 -4.579 4.957v6a1 1 0 0 0 1 1h16a1 1 0 0 0 1-1v-2.184a2.966 2.966 0 0 0 1 .184h1v15a1 1 0 0 1 -1 1h-2.586l-1.707-1.707a1 1 0 0 0 -.707-.293h-10a1 1 0 0 0 -.707.293l-1.707 1.707h-2.586a1 1 0 0 1 -1-1v-46a1 1 0 0 1 1-1h2.586l1.707 1.707a1 1 0 0 0 .707.293h10a1 1 0 0 0 .707-.293l1.707-1.707h2.586a1 1 0 0 1 1 1v9h-1a3 3 0 0 0 -3 3zm34 16a1 1 0 0 1 -1 1h-8a1 1 0 0 0 -.707.293l-6.293 6.293v-5.586a1 1 0 0 0 -1-1h-14a1 1 0 0 1 -1-1v-16a1 1 0 0 1 1-1h30a1 1 0 0 1 1 1z"/><path d="m32 24h2v2h-2z"/><path d="m36 24h2v2h-2z"/><path d="m40 24h16v2h-16z"/><path d="m32 28h24v2h-24z"/><path d="m32 32h4v2h-4z"/><path d="m38 32h4v2h-4z"/><path d="m44 32h4v2h-4z"/><path d="m50 32h6v2h-6z"/></g></svg>