<svg height="512" viewBox="0 0 64 64" width="512" xmlns="http://www.w3.org/2000/svg"><path d="m59 25h-4.7c-.1 0-.2.01-.3.02a2.024 2.024 0 0 0 -1.53 1.17l-6.94 15.62a2.008 2.008 0 0 1 -1.83 1.19h-9.4a2.008 2.008 0 0 1 -1.83-1.19l-1.67-3.77a18 18 0 1 0 -23.8-17.04 17.1 17.1 0 0 0 .46 4h8.38a9.881 9.881 0 0 1 -.84-4 10 10 0 1 1 12.52 9.67l1.04 2.33h-25.56v20h58v-26a2.006 2.006 0 0 0 -2-2z" fill="#9bc9ff"/><g fill="#57a4ff"><path d="m59 24h-4.581l-14.46-14.7-.012.012a18.979 18.979 0 0 0 -33.947 11.688 18.486 18.486 0 0 0 .245 3h-1.245a3 3 0 0 0 -3 3v34a1 1 0 0 0 1 1h58a1 1 0 0 0 1-1v-34a3 3 0 0 0 -3-3zm1 3v25h-56v-18h23.906l3.652 8.218a3 3 0 0 0 2.742 1.782h9.4a3 3 0 0 0 2.741-1.781l6.945-15.625a1 1 0 0 1 .914-.594h4.7a1 1 0 0 1 1 1zm-43.473-3a8.855 8.855 0 0 1 -.527-3 9 9 0 1 1 12.072 8.45l-1.63-3.668a3 3 0 0 0 -2.742-1.782zm35.809.734a2.985 2.985 0 0 0 -.777 1.047l-6.945 15.626a1 1 0 0 1 -.914.593h-9.4a1 1 0 0 1 -.914-.594l-1.249-2.806a18.985 18.985 0 0 0 11.019-23.2zm-44.336-3.734a17 17 0 1 1 23.324 15.768l-2.439-5.49a10.995 10.995 0 1 0 -14.885-10.278 10.845 10.845 0 0 0 .43 3h-6.13a16.352 16.352 0 0 1 -.3-3zm-3 5h18.7a1 1 0 0 1 .914.594l2.403 5.406h-23.017v-5a1 1 0 0 1 1-1zm-1 34v-6h56v6z"/><path d="m56 28h2v2h-2z"/><path d="m56 32h2v8h-2z"/></g></svg>