<svg height="512" viewBox="0 0 64 64" width="512" xmlns="http://www.w3.org/2000/svg"><path d="m57 13v-8a2.006 2.006 0 0 0 -2-2h-12a2.006 2.006 0 0 0 -2 2v8a2.006 2.006 0 0 0 2 2v26a2.006 2.006 0 0 0 -2 2v8a2.006 2.006 0 0 0 2 2h4v4h4v-4h4a2.006 2.006 0 0 0 2-2v-8a2.006 2.006 0 0 0 -2-2v-26a2.006 2.006 0 0 0 2-2z" fill="#9bc9ff"/><path d="m31 40h4v4h-4z" fill="#9bc9ff"/><path d="m31 32h4v4h-4z" fill="#9bc9ff"/><path d="m31 24h4v4h-4z" fill="#9bc9ff"/><path d="m7 12h28v8h-28z" fill="#9bc9ff"/><path d="m23 40h4v4h-4z" fill="#9bc9ff"/><path d="m23 32h4v4h-4z" fill="#9bc9ff"/><path d="m23 24h4v4h-4z" fill="#9bc9ff"/><path d="m15 40h4v4h-4z" fill="#9bc9ff"/><path d="m15 32h4v4h-4z" fill="#9bc9ff"/><path d="m15 24h4v4h-4z" fill="#9bc9ff"/><path d="m7 40h4v4h-4z" fill="#9bc9ff"/><path d="m7 32h4v4h-4z" fill="#9bc9ff"/><path d="m7 24h4v4h-4z" fill="#9bc9ff"/><g fill="#57a4ff"><path d="m59 7h-1v-2a3 3 0 0 0 -3-3h-12a3 3 0 0 0 -3 3v2h-35a3 3 0 0 0 -3 3v36a3 3 0 0 0 3 3h29v3a2 2 0 0 1 -2 2h-26a4 4 0 0 0 0 8h40a4 4 0 0 0 4-4h1a1 1 0 0 0 1-1v-3h3a3 3 0 0 0 3-3v-2h1a3 3 0 0 0 3-3v-36a3 3 0 0 0 -3-3zm-55 39v-36a1 1 0 0 1 1-1h35v4a3.006 3.006 0 0 0 2 2.829v24.342a3.006 3.006 0 0 0 -2 2.829v4h-35a1 1 0 0 1 -1-1zm42 14h-40a2 2 0 0 1 0-4h26a4 4 0 0 0 4-4v-3h4v2a3 3 0 0 0 3 3h3v3a1 1 0 0 0 1 1h1a2 2 0 0 1 -2 2zm4-4h-2v-2h2zm6-5a1 1 0 0 1 -1 1h-12a1 1 0 0 1 -1-1v-8a1 1 0 0 1 1-1 1 1 0 0 0 1-1v-26a1 1 0 0 0 -1-1 1 1 0 0 1 -1-1v-8a1 1 0 0 1 1-1h12a1 1 0 0 1 1 1v8a1 1 0 0 1 -1 1 1 1 0 0 0 -1 1v26a1 1 0 0 0 1 1 1 1 0 0 1 1 1zm4-5a1 1 0 0 1 -1 1h-1v-4a3.006 3.006 0 0 0 -2-2.829v-24.342a3.006 3.006 0 0 0 2-2.829v-4h1a1 1 0 0 1 1 1z"/><path d="m35 11h-28a1 1 0 0 0 -1 1v8a1 1 0 0 0 1 1h28a1 1 0 0 0 1-1v-8a1 1 0 0 0 -1-1zm-1 8h-26v-6h26z"/><path d="m11 23h-4a1 1 0 0 0 -1 1v4a1 1 0 0 0 1 1h4a1 1 0 0 0 1-1v-4a1 1 0 0 0 -1-1zm-1 4h-2v-2h2z"/><path d="m19 23h-4a1 1 0 0 0 -1 1v4a1 1 0 0 0 1 1h4a1 1 0 0 0 1-1v-4a1 1 0 0 0 -1-1zm-1 4h-2v-2h2z"/><path d="m27 23h-4a1 1 0 0 0 -1 1v4a1 1 0 0 0 1 1h4a1 1 0 0 0 1-1v-4a1 1 0 0 0 -1-1zm-1 4h-2v-2h2z"/><path d="m35 23h-4a1 1 0 0 0 -1 1v4a1 1 0 0 0 1 1h4a1 1 0 0 0 1-1v-4a1 1 0 0 0 -1-1zm-1 4h-2v-2h2z"/><path d="m11 31h-4a1 1 0 0 0 -1 1v4a1 1 0 0 0 1 1h4a1 1 0 0 0 1-1v-4a1 1 0 0 0 -1-1zm-1 4h-2v-2h2z"/><path d="m19 31h-4a1 1 0 0 0 -1 1v4a1 1 0 0 0 1 1h4a1 1 0 0 0 1-1v-4a1 1 0 0 0 -1-1zm-1 4h-2v-2h2z"/><path d="m27 31h-4a1 1 0 0 0 -1 1v4a1 1 0 0 0 1 1h4a1 1 0 0 0 1-1v-4a1 1 0 0 0 -1-1zm-1 4h-2v-2h2z"/><path d="m35 31h-4a1 1 0 0 0 -1 1v4a1 1 0 0 0 1 1h4a1 1 0 0 0 1-1v-4a1 1 0 0 0 -1-1zm-1 4h-2v-2h2z"/><path d="m11 39h-4a1 1 0 0 0 -1 1v4a1 1 0 0 0 1 1h4a1 1 0 0 0 1-1v-4a1 1 0 0 0 -1-1zm-1 4h-2v-2h2z"/><path d="m19 39h-4a1 1 0 0 0 -1 1v4a1 1 0 0 0 1 1h4a1 1 0 0 0 1-1v-4a1 1 0 0 0 -1-1zm-1 4h-2v-2h2z"/><path d="m27 39h-4a1 1 0 0 0 -1 1v4a1 1 0 0 0 1 1h4a1 1 0 0 0 1-1v-4a1 1 0 0 0 -1-1zm-1 4h-2v-2h2z"/><path d="m35 39h-4a1 1 0 0 0 -1 1v4a1 1 0 0 0 1 1h4a1 1 0 0 0 1-1v-4a1 1 0 0 0 -1-1zm-1 4h-2v-2h2z"/><path d="m31 18h2v-3a1 1 0 0 0 -1-1h-3v2h2z"/><path d="m25 14h2v2h-2z"/></g></svg>