<svg height="512" viewBox="0 0 64 64" width="512" xmlns="http://www.w3.org/2000/svg"><path d="m13.83 59.18a2.009 2.009 0 0 0 2 1.82h32.34a2.009 2.009 0 0 0 2-1.82l3.83-42.18h-44zm28.17-38.18h4v36h-4zm-12 0h4v36h-4zm-12 0h4v36h-4z" fill="#9bc9ff"/><path d="m41 11v-6a2.006 2.006 0 0 0 -2-2h-14a2.006 2.006 0 0 0 -2 2v6h4v-4h10v4z" fill="#9bc9ff"/><g fill="#57a4ff"><path d="m54 10h-12v-5a3 3 0 0 0 -3-3h-14a3 3 0 0 0 -3 3v5h-12a3 3 0 0 0 -3 3v2a2.993 2.993 0 0 0 2.072 2.838l3.766 41.433a2.987 2.987 0 0 0 2.989 2.729h32.346a2.987 2.987 0 0 0 2.989-2.729l3.766-41.433a2.993 2.993 0 0 0 2.072-2.838v-2a3 3 0 0 0 -3-3zm-30-5a1 1 0 0 1 1-1h14a1 1 0 0 1 1 1v5h-2v-3a1 1 0 0 0 -1-1h-10a1 1 0 0 0 -1 1v3h-2zm12 5h-8v-2h8zm13.169 49.09a1 1 0 0 1 -1 .91h-32.342a1 1 0 0 1 -1-.91l-3.727-41.09h41.81zm5.831-44.09a1 1 0 0 1 -1 1h-44a1 1 0 0 1 -1-1v-2a1 1 0 0 1 1-1h44a1 1 0 0 1 1 1z"/><path d="m34 20h-4a1 1 0 0 0 -1 1v36a1 1 0 0 0 1 1h4a1 1 0 0 0 1-1v-36a1 1 0 0 0 -1-1zm-1 36h-2v-34h2z"/><path d="m22 20h-4a1 1 0 0 0 -1 1v36a1 1 0 0 0 1 1h4a1 1 0 0 0 1-1v-36a1 1 0 0 0 -1-1zm-1 36h-2v-34h2z"/><path d="m46 20h-4a1 1 0 0 0 -1 1v36a1 1 0 0 0 1 1h4a1 1 0 0 0 1-1v-36a1 1 0 0 0 -1-1zm-1 36h-2v-34h2z"/><path d="m51 13h2v2h-2z"/><path d="m43 13h6v2h-6z"/></g></svg>