<svg id="Capa_1" xmlns="http://www.w3.org/2000/svg"><path d="m322.664 386.383h-177.038l163.661-163.661c23.177-23.177 36.5-55.334 36.5-88.111 0-68.816-55.795-124.611-124.611-124.611-32.776 0-64.935 13.322-88.111 36.5-9.762 9.762-9.762 25.59 0 35.351 9.762 9.762 25.589 9.762 35.351 0 14.18-14.179 32.707-21.851 52.76-21.851 41.211 0 74.611 33.4 74.611 74.611 0 20.054-7.671 38.58-21.851 52.76l-206.337 206.336c-9.762 9.762-9.762 25.59 0 35.351 4.881 4.881 11.278 7.321 17.676 7.324h237.389v40.618c0 13.807 11.193 25 25 25s25-11.193 25-25v-40.617h54.059c13.807 0 25-11.193 25-25s-11.193-25-25-25h-54.059v-40.617c0-13.807-11.193-25-25-25s-25 11.193-25 25z" fill="#88df8e" fill-rule="evenodd"/><path d="m335.787 134.611c0 30.168-12.236 59.706-33.571 81.04l-163.662 163.661c-2.859 2.86-3.716 7.162-2.168 10.898 1.548 3.737 5.194 6.173 9.239 6.173h77.038c5.522 0 10-4.477 10-10s-4.478-10-10-10h-52.896l146.59-146.59c25.058-25.057 39.429-59.749 39.429-95.182 0-18.916-3.857-37.223-11.465-54.414-2.234-5.05-8.14-7.334-13.191-5.098-5.051 2.235-7.333 8.141-5.098 13.191 6.473 14.626 9.755 30.21 9.755 46.321z"/><path d="m426.722 376.383h-44.059v-30.617c0-19.299-15.701-35-35-35s-35 15.701-35 35v30.617c-5.522 0-10 4.477-10 10s4.478 10 10 10h10c5.522 0 10-4.477 10-10v-40.617c0-8.271 6.729-15 15-15s15 6.729 15 15v40.617c0 5.523 4.478 10 10 10h54.059c8.271 0 15 6.729 15 15s-6.729 15-15 15h-54.059c-5.522 0-10 4.477-10 10v40.617c0 8.271-6.729 15-15 15s-15-6.729-15-15v-40.617c0-5.523-4.478-10-10-10h-237.384c-4.009-.002-7.776-1.563-10.609-4.396-2.832-2.833-4.393-6.599-4.393-10.604s1.561-7.772 4.394-10.604l206.336-206.336c15.979-15.979 24.78-37.228 24.78-59.831 0-46.655-37.956-84.611-84.61-84.611-22.604 0-43.853 8.801-59.831 24.781-2.832 2.833-6.599 4.393-10.604 4.393s-7.772-1.56-10.604-4.393c-5.848-5.847-5.848-15.362 0-21.209 21.332-21.337 50.871-33.573 81.039-33.573 16.11 0 31.691 3.281 46.313 9.751 5.052 2.238 10.957-.048 13.191-5.098 2.235-5.05-.047-10.957-5.098-13.191-17.186-7.606-35.491-11.462-54.406-11.462-35.433 0-70.126 14.371-95.183 39.429-13.646 13.646-13.645 35.848 0 49.493 6.61 6.61 15.398 10.251 24.747 10.251s18.137-3.641 24.747-10.251c12.378-12.379 28.177-18.922 45.689-18.922 35.626 0 64.61 28.984 64.61 64.611 0 17.511-6.543 33.31-18.923 45.688l-206.336 206.337c-6.61 6.61-10.251 15.399-10.251 24.747 0 9.349 3.641 18.137 10.251 24.747 6.607 6.607 15.395 10.249 24.746 10.253h227.39v30.617c0 19.299 15.701 35 35 35s35-15.701 35-35v-30.617h44.059c19.299 0 35-15.701 35-35s-15.702-35-35.001-35z"/><path d="m267.66 376.383c-5.522 0-9.996 4.477-9.996 10s4.48 10 10.003 10 10-4.477 10-10-4.478-10-10-10z"/><path d="m309.291 56.5c2.4 0 4.808-.859 6.724-2.601 4.087-3.715 4.388-10.04.673-14.126l-.005-.005c-3.714-4.087-10.036-4.384-14.124-.67-4.086 3.715-4.385 10.042-.67 14.128 1.973 2.171 4.682 3.274 7.402 3.274z"/></svg>
